<svg width="124" height="26" viewBox="0 0 124 26" fill="none" xmlns="http://www.w3.org/2000/svg">
<path d="M29.6367 25H25.5586L25.2422 7.28125H25.1719L15.627 25H14.502L10.2656 7H10.1953L4.35938 25H0.210938L8.24414 0.443359H12.3926L16.2773 16.5449L24.8379 0.443359H29.127L29.6367 25ZM40.6934 0.443359L38.4961 15.9648L38.5664 16.0352L44.877 8.75781H49.7285L42.5742 16.4746L49.2715 25H44.4023L38.3906 16.8613L37.248 25H33.3809L36.8438 0.443359H40.6934ZM56.9883 8.75781L54.6855 25H50.8184L53.0859 8.75781H56.9883ZM57.709 3.94141C57.709 4.30469 57.6152 4.65039 57.4277 4.97852C57.2402 5.29492 56.9766 5.55273 56.6367 5.75195C56.3086 5.93945 55.957 6.0332 55.582 6.0332C55.207 6.0332 54.8555 5.93945 54.5273 5.75195C54.1992 5.55273 53.9414 5.29492 53.7539 4.97852C53.5781 4.65039 53.4902 4.30469 53.4902 3.94141C53.4902 3.56641 53.5781 3.21484 53.7539 2.88672C53.9414 2.55859 54.1934 2.30078 54.5098 2.11328C54.8379 1.91406 55.1953 1.81445 55.582 1.81445C55.9688 1.81445 56.3262 1.91406 56.6543 2.11328C56.9941 2.30078 57.252 2.55859 57.4277 2.88672C57.6152 3.21484 57.709 3.56641 57.709 3.94141ZM69.5918 8.75781L69.1348 11.6758H65.707L64.4941 18.6719C64.3418 19.4688 64.2656 20.1016 64.2656 20.5703C64.2656 20.9453 64.4062 21.2676 64.6875 21.5371C64.9688 21.8066 65.3438 21.9414 65.8125 21.9414C66.3281 21.9414 66.8145 21.8594 67.2715 21.6953C67.7402 21.5312 68.25 21.291 68.8008 20.9746L68.6953 24.5605C68.1914 24.8301 67.5996 25.041 66.9199 25.1934C66.2402 25.3574 65.5137 25.4395 64.7402 25.4395C63.8613 25.4395 63.082 25.2812 62.4023 24.9648C61.7344 24.6367 61.2129 24.1855 60.8379 23.6113C60.4629 23.0254 60.2754 22.3867 60.2754 21.6953C60.2754 20.9922 60.4336 19.791 60.75 18.0918L61.8926 11.6758H58.834L59.3086 8.75781H62.4375L63.0176 5.38281H66.9023L66.2871 8.75781H69.5918ZM88.3301 0.443359L84.8848 25H80.9824L84.4453 0.443359H88.3301ZM103.043 25H99.1582L99.4043 23.3125L99.3867 23.2949L99.334 23.2773C97.8809 24.6367 96.3926 25.3164 94.8691 25.3164C93.8496 25.3164 92.918 25.0234 92.0742 24.4375C91.2305 23.8516 90.5684 23.0488 90.0879 22.0293C89.6074 20.998 89.3672 19.8672 89.3672 18.6367C89.3672 16.5742 89.8418 14.7461 90.791 13.1523C91.7402 11.5586 93.0703 10.3574 94.7812 9.54883C96.4922 8.74023 98.4785 8.33594 100.74 8.33594C102.275 8.33594 103.799 8.51172 105.311 8.86328L103.043 25ZM101.057 11.6406C100.705 11.6055 100.365 11.5879 100.037 11.5879C99.0645 11.5879 98.1797 11.7344 97.3828 12.0273C96.5859 12.3203 95.8945 12.7656 95.3086 13.3633C94.7227 13.9492 94.248 14.7051 93.8848 15.6309C93.5332 16.5449 93.3574 17.4824 93.3574 18.4434C93.3574 19.6035 93.6094 20.5352 94.1133 21.2383C94.6289 21.9414 95.3145 22.293 96.1699 22.293C96.7207 22.293 97.3242 22.1113 97.9805 21.748C98.6367 21.3848 99.2578 20.8984 99.8438 20.2891L101.057 11.6406ZM119.689 15.7891C119.689 14.4648 119.408 13.4395 118.846 12.7129C118.283 11.9746 117.51 11.6055 116.525 11.6055C115.986 11.6055 115.418 11.7871 114.82 12.1504C114.234 12.5137 113.689 12.9941 113.186 13.5918L111.955 22.1875C112.002 22.1992 112.242 22.2168 112.676 22.2402C113.109 22.252 113.408 22.2578 113.572 22.2578C115.494 22.2578 116.994 21.6895 118.072 20.5527C119.15 19.416 119.689 17.8281 119.689 15.7891ZM123.697 15.7188C123.697 17.125 123.445 18.4434 122.941 19.6738C122.438 20.9043 121.734 21.9473 120.832 22.8027C119.93 23.6582 118.828 24.3145 117.527 24.7715C116.238 25.2168 114.791 25.4395 113.186 25.4395C111.217 25.4395 109.389 25.3047 107.701 25.0352L111.094 0.443359H115.014L113.643 10.1641L113.66 10.1816L113.713 10.1641C114.451 9.49609 115.131 9.02734 115.752 8.75781C116.373 8.47656 117.064 8.33594 117.826 8.33594C118.939 8.33594 119.947 8.6582 120.85 9.30273C121.752 9.93555 122.449 10.8203 122.941 11.957C123.445 13.082 123.697 14.3359 123.697 15.7188Z" fill="white" fill-opacity="0.7"/>
</svg>
