<svg width="232" height="45" viewBox="0 0 232 45" fill="none" xmlns="http://www.w3.org/2000/svg">
<path d="M52.6875 44H45.4375L44.875 12.5H44.75L27.7812 44H25.7812L18.25 12H18.125L7.75 44H0.375L14.6562 0.34375H22.0312L28.9375 28.9688L44.1562 0.34375H51.7812L52.6875 44ZM72.3438 0.34375L68.4375 27.9375L68.5625 28.0625L79.7812 15.125H88.4062L75.6875 28.8438L87.5938 44H78.9375L68.25 29.5312L66.2188 44H59.3438L65.5 0.34375H72.3438ZM101.312 15.125L97.2188 44H90.3438L94.375 15.125H101.312ZM102.594 6.5625C102.594 7.20833 102.427 7.82292 102.094 8.40625C101.76 8.96875 101.292 9.42708 100.688 9.78125C100.104 10.1146 99.4792 10.2812 98.8125 10.2812C98.1458 10.2812 97.5208 10.1146 96.9375 9.78125C96.3542 9.42708 95.8958 8.96875 95.5625 8.40625C95.25 7.82292 95.0938 7.20833 95.0938 6.5625C95.0938 5.89583 95.25 5.27083 95.5625 4.6875C95.8958 4.10417 96.3438 3.64583 96.9062 3.3125C97.4896 2.95833 98.125 2.78125 98.8125 2.78125C99.5 2.78125 100.135 2.95833 100.719 3.3125C101.323 3.64583 101.781 4.10417 102.094 4.6875C102.427 5.27083 102.594 5.89583 102.594 6.5625ZM123.719 15.125L122.906 20.3125H116.812L114.656 32.75C114.385 34.1667 114.25 35.2917 114.25 36.125C114.25 36.7917 114.5 37.3646 115 37.8438C115.5 38.3229 116.167 38.5625 117 38.5625C117.917 38.5625 118.781 38.4167 119.594 38.125C120.427 37.8333 121.333 37.4062 122.312 36.8438L122.125 43.2188C121.229 43.6979 120.177 44.0729 118.969 44.3438C117.76 44.6354 116.469 44.7812 115.094 44.7812C113.531 44.7812 112.146 44.5 110.938 43.9375C109.75 43.3542 108.823 42.5521 108.156 41.5312C107.49 40.4896 107.156 39.3542 107.156 38.125C107.156 36.875 107.438 34.7396 108 31.7188L110.031 20.3125H104.594L105.438 15.125H111L112.031 9.125H118.938L117.844 15.125H123.719ZM157.031 0.34375L150.906 44H143.969L150.125 0.34375H157.031ZM183.188 44H176.281L176.719 41L176.688 40.9688L176.594 40.9375C174.01 43.3542 171.365 44.5625 168.656 44.5625C166.844 44.5625 165.188 44.0417 163.688 43C162.188 41.9583 161.01 40.5312 160.156 38.7188C159.302 36.8854 158.875 34.875 158.875 32.6875C158.875 29.0208 159.719 25.7708 161.406 22.9375C163.094 20.1042 165.458 17.9688 168.5 16.5312C171.542 15.0938 175.073 14.375 179.094 14.375C181.823 14.375 184.531 14.6875 187.219 15.3125L183.188 44ZM179.656 20.25C179.031 20.1875 178.427 20.1562 177.844 20.1562C176.115 20.1562 174.542 20.4167 173.125 20.9375C171.708 21.4583 170.479 22.25 169.438 23.3125C168.396 24.3542 167.552 25.6979 166.906 27.3438C166.281 28.9688 165.969 30.6354 165.969 32.3438C165.969 34.4062 166.417 36.0625 167.312 37.3125C168.229 38.5625 169.448 39.1875 170.969 39.1875C171.948 39.1875 173.021 38.8646 174.188 38.2188C175.354 37.5729 176.458 36.7083 177.5 35.625L179.656 20.25ZM212.781 27.625C212.781 25.2708 212.281 23.4479 211.281 22.1562C210.281 20.8438 208.906 20.1875 207.156 20.1875C206.198 20.1875 205.188 20.5104 204.125 21.1562C203.083 21.8021 202.115 22.6562 201.219 23.7188L199.031 39C199.115 39.0208 199.542 39.0521 200.312 39.0938C201.083 39.1146 201.615 39.125 201.906 39.125C205.323 39.125 207.99 38.1146 209.906 36.0938C211.823 34.0729 212.781 31.25 212.781 27.625ZM219.906 27.5C219.906 30 219.458 32.3438 218.562 34.5312C217.667 36.7188 216.417 38.5729 214.812 40.0938C213.208 41.6146 211.25 42.7812 208.938 43.5938C206.646 44.3854 204.073 44.7812 201.219 44.7812C197.719 44.7812 194.469 44.5417 191.469 44.0625L197.5 0.34375H204.469L202.031 17.625L202.062 17.6562L202.156 17.625C203.469 16.4375 204.677 15.6042 205.781 15.125C206.885 14.625 208.115 14.375 209.469 14.375C211.448 14.375 213.24 14.9479 214.844 16.0938C216.448 17.2188 217.688 18.7917 218.562 20.8125C219.458 22.8125 219.906 25.0417 219.906 27.5ZM231.781 40.2812C231.781 41.5104 231.344 42.5625 230.469 43.4375C229.615 44.2917 228.562 44.7188 227.312 44.7188C226.542 44.7188 225.812 44.5208 225.125 44.125C224.458 43.75 223.917 43.2188 223.5 42.5312C223.104 41.8438 222.906 41.0938 222.906 40.2812C222.906 39.4688 223.104 38.7188 223.5 38.0312C223.896 37.3229 224.438 36.7812 225.125 36.4062C225.812 36.0104 226.542 35.8125 227.312 35.8125C228.562 35.8125 229.615 36.25 230.469 37.125C231.344 38 231.781 39.0521 231.781 40.2812Z" fill="#3EB54D"/>
</svg>
